<svg width="33" height="33" viewBox="0 0 33 33" fill="none" xmlns="http://www.w3.org/2000/svg">
<g id="LockKey">
<path id="Vector" d="M26.449 10.6338H22.449V7.63379C22.449 6.04249 21.8168 4.51637 20.6916 3.39115C19.5664 2.26593 18.0403 1.63379 16.449 1.63379C14.8577 1.63379 13.3316 2.26593 12.2063 3.39115C11.0811 4.51637 10.449 6.04249 10.449 7.63379V10.6338H6.44897C5.91854 10.6338 5.40983 10.8445 5.03476 11.2196C4.65969 11.5946 4.44897 12.1034 4.44897 12.6338V26.6338C4.44897 27.1642 4.65969 27.6729 5.03476 28.048C5.40983 28.4231 5.91854 28.6338 6.44897 28.6338H26.449C26.9794 28.6338 27.4881 28.4231 27.8632 28.048C28.2383 27.6729 28.449 27.1642 28.449 26.6338V12.6338C28.449 12.1034 28.2383 11.5946 27.8632 11.2196C27.4881 10.8445 26.9794 10.6338 26.449 10.6338ZM17.449 20.4625V23.6338C17.449 23.899 17.3436 24.1534 17.1561 24.3409C16.9685 24.5284 16.7142 24.6338 16.449 24.6338C16.1838 24.6338 15.9294 24.5284 15.7419 24.3409C15.5543 24.1534 15.449 23.899 15.449 23.6338V20.4625C14.7818 20.2266 14.2194 19.7625 13.8613 19.1521C13.5033 18.5416 13.3725 17.8243 13.4922 17.1268C13.6118 16.4293 13.9742 15.7966 14.5153 15.3404C15.0564 14.8843 15.7413 14.6341 16.449 14.6341C17.1567 14.6341 17.8416 14.8843 18.3826 15.3404C18.9237 15.7966 19.2861 16.4293 19.4058 17.1268C19.5254 17.8243 19.3947 18.5416 19.0366 19.1521C18.6785 19.7625 18.1162 20.2266 17.449 20.4625ZM20.449 10.6338H12.449V7.63379C12.449 6.57292 12.8704 5.55551 13.6205 4.80536C14.3707 4.05522 15.3881 3.63379 16.449 3.63379C17.5098 3.63379 18.5273 4.05522 19.2774 4.80536C20.0275 5.55551 20.449 6.57292 20.449 7.63379V10.6338Z" fill="#16A34A"/>
</g>
</svg>
