<svg width="33" height="33" viewBox="0 0 33 33" fill="none" xmlns="http://www.w3.org/2000/svg">
<g id="Planet">
<path id="Vector" d="M28.3412 15.1279C28.406 15.6358 28.4386 16.1472 28.4387 16.6592C28.4406 18.9014 27.8137 21.0992 26.6294 23.0031C25.445 24.907 23.7506 26.4406 21.7384 27.43C19.7263 28.4193 17.4771 28.8247 15.2462 28.6001C13.0152 28.3754 10.892 27.5298 9.11748 26.1592C12.2662 25.3892 15.97 23.7929 19.4225 21.8092C23.1025 19.6954 26.2087 17.3417 28.3412 15.1279ZM31.0775 8.24418C30.1212 6.59543 27.5975 6.22418 23.765 7.16168C21.9907 5.78974 19.8672 4.9429 17.6357 4.71739C15.4042 4.49188 13.1542 4.89672 11.1412 5.88593C9.1283 6.87515 7.43316 8.40907 6.24836 10.3135C5.06356 12.2178 4.43661 14.4163 4.43873 16.6592C4.43888 17.1736 4.47145 17.6876 4.53623 18.1979C1.07498 21.7842 1.12498 23.9092 1.80123 25.0742C2.43873 26.1792 3.76873 26.6592 5.51873 26.6592C6.73375 26.634 7.94162 26.4662 9.11748 26.1592C8.47272 25.6608 7.87974 25.0988 7.34748 24.4817C5.18623 24.8417 3.84748 24.6067 3.53123 24.0704C3.34873 23.7567 3.44998 23.1654 3.80873 22.4454C4.16345 21.7711 4.59462 21.1399 5.09373 20.5642C5.09431 20.5605 5.09431 20.5567 5.09373 20.5529V20.5629C5.58981 21.9983 6.35326 23.3267 7.34373 24.4779C9.96123 24.0417 13.78 22.7392 18.4225 20.0717C21.9387 18.0579 25.6887 15.2429 27.7875 12.7617C27.2933 11.3243 26.5296 9.99436 25.5375 8.84293L25.5212 8.82418C25.5212 8.83043 25.5325 8.83543 25.5375 8.84293C27.3137 8.54918 28.9587 8.57168 29.35 9.24793C29.465 9.44418 29.475 9.73793 29.3687 10.1229C29.1575 10.9117 28.595 11.8142 27.79 12.7642C28.0547 13.532 28.2402 14.3249 28.3437 15.1304C29.9062 13.5054 30.9462 11.9617 31.3 10.6404C31.5425 9.72293 31.4687 8.91793 31.0775 8.24418Z" fill="#0084CC"/>
</g>
</svg>
