<svg width="33" height="33" viewBox="0 0 33 33" fill="none" xmlns="http://www.w3.org/2000/svg">
<g id="Planet">
<path id="Vector" d="M28.3412 15.1279C28.406 15.6358 28.4385 16.1472 28.4387 16.6592C28.4406 18.9014 27.8137 21.0992 26.6294 23.0031C25.445 24.907 23.7505 26.4406 21.7384 27.43C19.7263 28.4193 17.4771 28.8247 15.2461 28.6001C13.0152 28.3754 10.892 27.5298 9.11744 26.1592C12.2662 25.3892 15.9699 23.7929 19.4224 21.8092C23.1024 19.6954 26.2087 17.3417 28.3412 15.1279ZM31.0774 8.24418C30.1212 6.59543 27.5974 6.22418 23.7649 7.16168C21.9906 5.78974 19.8671 4.9429 17.6356 4.71739C15.4041 4.49188 13.1541 4.89672 11.1412 5.88593C9.12827 6.87515 7.43313 8.40907 6.24833 10.3135C5.06353 12.2178 4.43658 14.4163 4.43869 16.6592C4.43885 17.1736 4.47142 17.6876 4.53619 18.1979C1.07494 21.7842 1.12494 23.9092 1.80119 25.0742C2.43869 26.1792 3.76869 26.6592 5.51869 26.6592C6.73372 26.634 7.94159 26.4662 9.11744 26.1592C8.47269 25.6608 7.87971 25.0988 7.34745 24.4817C5.18619 24.8417 3.84745 24.6067 3.53119 24.0704C3.34869 23.7567 3.44994 23.1654 3.80869 22.4454C4.16342 21.7711 4.59459 21.1399 5.0937 20.5642C5.09428 20.5605 5.09428 20.5567 5.0937 20.5529V20.5629C5.58978 21.9983 6.35323 23.3267 7.3437 24.4779C9.96119 24.0417 13.7799 22.7392 18.4224 20.0717C21.9387 18.0579 25.6887 15.2429 27.7874 12.7617C27.2932 11.3243 26.5296 9.99436 25.5374 8.84293L25.5212 8.82418C25.5212 8.83043 25.5324 8.83543 25.5374 8.84293C27.3137 8.54918 28.9587 8.57168 29.3499 9.24793C29.4649 9.44418 29.4749 9.73793 29.3687 10.1229C29.1574 10.9117 28.5949 11.8142 27.7899 12.7642C28.0546 13.532 28.2402 14.3249 28.3437 15.1304C29.9062 13.5054 30.9462 11.9617 31.2999 10.6404C31.5424 9.72293 31.4687 8.91793 31.0774 8.24418Z" fill="#D346E6"/>
</g>
</svg>
