<svg width="33" height="33" viewBox="0 0 33 33" fill="none" xmlns="http://www.w3.org/2000/svg">
<g id="Timer">
<path id="Vector" d="M16.7468 5.09961C14.3735 5.09961 12.0534 5.8034 10.08 7.12197C8.1066 8.44055 6.56853 10.3147 5.66028 12.5074C4.75203 14.7001 4.51439 17.1129 4.97741 19.4407C5.44043 21.7685 6.58332 23.9067 8.26155 25.5849C9.93978 27.2631 12.078 28.406 14.4057 28.869C16.7335 29.3321 19.1463 29.0944 21.339 28.1862C23.5317 27.2779 25.4059 25.7398 26.7245 23.7665C28.043 21.7931 28.7468 19.473 28.7468 17.0996C28.7432 13.9181 27.4777 10.868 25.2281 8.61835C22.9784 6.3687 19.9283 5.10325 16.7468 5.09961ZM22.4543 12.8071L17.4543 17.8071C17.3614 17.9 17.2511 17.9737 17.1297 18.024C17.0083 18.0743 16.8782 18.1002 16.7468 18.1002C16.6154 18.1002 16.4853 18.0743 16.3639 18.024C16.2425 17.9737 16.1322 17.9 16.0393 17.8071C15.9464 17.7142 15.8727 17.6039 15.8224 17.4825C15.7722 17.3611 15.7463 17.231 15.7463 17.0996C15.7463 16.9682 15.7722 16.8381 15.8224 16.7167C15.8727 16.5953 15.9464 16.485 16.0393 16.3921L21.0393 11.3921C21.1322 11.2992 21.2425 11.2255 21.3639 11.1752C21.4853 11.1249 21.6154 11.0991 21.7468 11.0991C21.8782 11.0991 22.0083 11.1249 22.1297 11.1752C22.2511 11.2255 22.3614 11.2992 22.4543 11.3921C22.5472 11.485 22.6209 11.5953 22.6712 11.7167C22.7215 11.8381 22.7474 11.9682 22.7474 12.0996C22.7474 12.231 22.7215 12.3611 22.6712 12.4825C22.6209 12.6039 22.5472 12.7142 22.4543 12.8071ZM12.7468 2.09961C12.7468 1.83439 12.8522 1.58004 13.0397 1.3925C13.2273 1.20497 13.4816 1.09961 13.7468 1.09961H19.7468C20.012 1.09961 20.2664 1.20497 20.4539 1.3925C20.6415 1.58004 20.7468 1.83439 20.7468 2.09961C20.7468 2.36483 20.6415 2.61918 20.4539 2.80672C20.2664 2.99425 20.012 3.09961 19.7468 3.09961H13.7468C13.4816 3.09961 13.2273 2.99425 13.0397 2.80672C12.8522 2.61918 12.7468 2.36483 12.7468 2.09961Z" fill="#E88C30"/>
</g>
</svg>
