<svg width="33" height="33" viewBox="0 0 33 33" fill="none" xmlns="http://www.w3.org/2000/svg">
<g id="UsersThree">
<path id="Vector" d="M8.89807 18.9887C8.90146 19.0564 8.89104 19.1241 8.86743 19.1877C8.84383 19.2513 8.80754 19.3094 8.76077 19.3585C8.71399 19.4076 8.65772 19.4467 8.59537 19.4734C8.53302 19.5001 8.46589 19.5138 8.39807 19.5137H2.88307C2.65736 19.514 2.43818 19.438 2.26116 19.298C2.08414 19.1579 1.9597 18.9622 1.90807 18.7424C1.87592 18.592 1.8774 18.4364 1.91241 18.2866C1.94742 18.1369 2.01508 17.9967 2.11057 17.8762C2.99283 16.7062 4.16343 15.7849 5.50807 15.2024C4.91773 14.6642 4.46495 13.9923 4.18767 13.2431C3.91038 12.4939 3.81665 11.6891 3.91434 10.8962C4.01202 10.1034 4.29827 9.34542 4.74912 8.68591C5.19996 8.0264 5.80227 7.48452 6.50561 7.10566C7.20894 6.72679 7.99281 6.52197 8.79158 6.50836C9.59035 6.49474 10.3807 6.67271 11.0966 7.02738C11.8124 7.38205 12.4329 7.90308 12.9059 8.54684C13.379 9.19059 13.6909 9.93833 13.8156 10.7274C13.8317 10.8335 13.8127 10.942 13.7614 11.0363C13.7102 11.1306 13.6296 11.2057 13.5318 11.2499C12.1448 11.8912 10.9702 12.9157 10.1465 14.2028C9.32275 15.4898 8.88438 16.9856 8.88307 18.5137C8.88307 18.6737 8.88307 18.8312 8.89807 18.9887ZM31.6481 17.8749C30.7679 16.7063 29.5999 15.7855 28.2581 15.2024C28.8484 14.6642 29.3012 13.9923 29.5785 13.2431C29.8558 12.4939 29.9495 11.6891 29.8518 10.8962C29.7541 10.1034 29.4679 9.34542 29.017 8.68591C28.5662 8.0264 27.9639 7.48452 27.2605 7.10566C26.5572 6.72679 25.7733 6.52197 24.9746 6.50836C24.1758 6.49474 23.3854 6.67271 22.6696 7.02738C21.9537 7.38205 21.3333 7.90308 20.8602 8.54684C20.3872 9.19059 20.0752 9.93833 19.9506 10.7274C19.9345 10.8335 19.9535 10.942 20.0047 11.0363C20.0559 11.1306 20.1366 11.2057 20.2343 11.2499C21.6213 11.8912 22.796 12.9157 23.6197 14.2028C24.4434 15.4898 24.8818 16.9856 24.8831 18.5137C24.8831 18.6737 24.8831 18.8312 24.8681 18.9887C24.8647 19.0564 24.8751 19.1241 24.8987 19.1877C24.9223 19.2513 24.9586 19.3094 25.0054 19.3585C25.0521 19.4076 25.1084 19.4467 25.1708 19.4734C25.2331 19.5001 25.3003 19.5138 25.3681 19.5137H30.8831C31.1088 19.514 31.328 19.438 31.505 19.298C31.682 19.1579 31.8064 18.9622 31.8581 18.7424C31.8904 18.5918 31.8889 18.4358 31.8537 18.2858C31.8184 18.1358 31.7504 17.9954 31.6543 17.8749H31.6481ZM20.5231 23.2724C21.5188 22.5099 22.2505 21.4545 22.6154 20.2546C22.9803 19.0547 22.96 17.7707 22.5574 16.5829C22.1548 15.3951 21.3902 14.3634 20.3709 13.6326C19.3517 12.9019 18.1291 12.5089 16.8749 12.5089C15.6208 12.5089 14.3982 12.9019 13.3789 13.6326C12.3597 14.3634 11.595 15.3951 11.1925 16.5829C10.7899 17.7707 10.7696 19.0547 11.1345 20.2546C11.4994 21.4545 12.2311 22.5099 13.2268 23.2724C11.46 24.038 9.98465 25.349 9.01682 27.0137C8.92904 27.1657 8.88284 27.3382 8.88285 27.5137C8.88286 27.6893 8.92908 27.8618 9.01688 28.0138C9.10467 28.1658 9.23094 28.292 9.38299 28.3798C9.53504 28.4675 9.70751 28.5137 9.88307 28.5137H23.8831C24.0586 28.5137 24.2311 28.4675 24.3831 28.3798C24.5352 28.292 24.6615 28.1658 24.7493 28.0138C24.8371 27.8618 24.8833 27.6893 24.8833 27.5137C24.8833 27.3382 24.8371 27.1657 24.7493 27.0137C23.7794 25.3479 22.3013 24.0368 20.5318 23.2724H20.5231Z" fill="#DC2626"/>
</g>
</svg>
