<svg width="32" height="24" viewBox="0 0 32 24" fill="none" xmlns="http://www.w3.org/2000/svg">
<g id="Flag">
<rect id="Mask" y="0.573242" width="32" height="22.8571" rx="2" fill="white"/>
<mask id="mask0_107_10" style="mask-type:luminance" maskUnits="userSpaceOnUse" x="0" y="0" width="32" height="24">
<rect id="Mask_2" y="0.573242" width="32" height="22.8571" rx="2" fill="white"/>
</mask>
<g mask="url(#mask0_107_10)">
<path id="Rectangle 511" fill-rule="evenodd" clip-rule="evenodd" d="M32 0.573242H0V2.09705H32V0.573242ZM32 3.62086H0V5.14467H32V3.62086ZM0 6.66848H32V8.19229H0V6.66848ZM32 9.7161H0V11.2399H32V9.7161ZM0 12.7637H32V14.2875H0V12.7637ZM32 15.8113H0V17.3351H32V15.8113ZM0 18.859H32V20.3828H0V18.859ZM32 21.9066H0V23.4304H32V21.9066Z" fill="#D02F44"/>
<rect id="Rectangle 511_2" y="0.573242" width="13.7143" height="10.6667" fill="#46467F"/>
<g id="Oval 43" filter="url(#filter0_d_107_10)">
<path fill-rule="evenodd" clip-rule="evenodd" d="M3.04761 2.85907C3.04761 3.27986 2.7065 3.62098 2.28571 3.62098C1.86492 3.62098 1.5238 3.27986 1.5238 2.85907C1.5238 2.43828 1.86492 2.09717 2.28571 2.09717C2.7065 2.09717 3.04761 2.43828 3.04761 2.85907ZM6.09523 2.85907C6.09523 3.27986 5.75412 3.62098 5.33333 3.62098C4.91254 3.62098 4.57142 3.27986 4.57142 2.85907C4.57142 2.43828 4.91254 2.09717 5.33333 2.09717C5.75412 2.09717 6.09523 2.43828 6.09523 2.85907ZM8.38095 3.62098C8.80174 3.62098 9.14285 3.27986 9.14285 2.85907C9.14285 2.43828 8.80174 2.09717 8.38095 2.09717C7.96016 2.09717 7.61904 2.43828 7.61904 2.85907C7.61904 3.27986 7.96016 3.62098 8.38095 3.62098ZM12.1905 2.85907C12.1905 3.27986 11.8494 3.62098 11.4286 3.62098C11.0078 3.62098 10.6667 3.27986 10.6667 2.85907C10.6667 2.43828 11.0078 2.09717 11.4286 2.09717C11.8494 2.09717 12.1905 2.43828 12.1905 2.85907ZM3.80952 5.14479C4.23031 5.14479 4.57142 4.80367 4.57142 4.38288C4.57142 3.96209 4.23031 3.62098 3.80952 3.62098C3.38873 3.62098 3.04761 3.96209 3.04761 4.38288C3.04761 4.80367 3.38873 5.14479 3.80952 5.14479ZM7.61904 4.38288C7.61904 4.80367 7.27793 5.14479 6.85714 5.14479C6.43635 5.14479 6.09523 4.80367 6.09523 4.38288C6.09523 3.96209 6.43635 3.62098 6.85714 3.62098C7.27793 3.62098 7.61904 3.96209 7.61904 4.38288ZM9.90476 5.14479C10.3255 5.14479 10.6667 4.80367 10.6667 4.38288C10.6667 3.96209 10.3255 3.62098 9.90476 3.62098C9.48397 3.62098 9.14285 3.96209 9.14285 4.38288C9.14285 4.80367 9.48397 5.14479 9.90476 5.14479ZM12.1905 5.90669C12.1905 6.32748 11.8494 6.6686 11.4286 6.6686C11.0078 6.6686 10.6667 6.32748 10.6667 5.90669C10.6667 5.4859 11.0078 5.14479 11.4286 5.14479C11.8494 5.14479 12.1905 5.4859 12.1905 5.90669ZM8.38095 6.6686C8.80174 6.6686 9.14285 6.32748 9.14285 5.90669C9.14285 5.4859 8.80174 5.14479 8.38095 5.14479C7.96016 5.14479 7.61904 5.4859 7.61904 5.90669C7.61904 6.32748 7.96016 6.6686 8.38095 6.6686ZM6.09523 5.90669C6.09523 6.32748 5.75412 6.6686 5.33333 6.6686C4.91254 6.6686 4.57142 6.32748 4.57142 5.90669C4.57142 5.4859 4.91254 5.14479 5.33333 5.14479C5.75412 5.14479 6.09523 5.4859 6.09523 5.90669ZM2.28571 6.6686C2.7065 6.6686 3.04761 6.32748 3.04761 5.90669C3.04761 5.4859 2.7065 5.14479 2.28571 5.14479C1.86492 5.14479 1.5238 5.4859 1.5238 5.90669C1.5238 6.32748 1.86492 6.6686 2.28571 6.6686ZM4.57142 7.4305C4.57142 7.85129 4.23031 8.19241 3.80952 8.19241C3.38873 8.19241 3.04761 7.85129 3.04761 7.4305C3.04761 7.00971 3.38873 6.6686 3.80952 6.6686C4.23031 6.6686 4.57142 7.00971 4.57142 7.4305ZM6.85714 8.19241C7.27793 8.19241 7.61904 7.85129 7.61904 7.4305C7.61904 7.00971 7.27793 6.6686 6.85714 6.6686C6.43635 6.6686 6.09523 7.00971 6.09523 7.4305C6.09523 7.85129 6.43635 8.19241 6.85714 8.19241ZM10.6667 7.4305C10.6667 7.85129 10.3255 8.19241 9.90476 8.19241C9.48397 8.19241 9.14285 7.85129 9.14285 7.4305C9.14285 7.00971 9.48397 6.6686 9.90476 6.6686C10.3255 6.6686 10.6667 7.00971 10.6667 7.4305ZM11.4286 9.71622C11.8494 9.71622 12.1905 9.3751 12.1905 8.95431C12.1905 8.53352 11.8494 8.19241 11.4286 8.19241C11.0078 8.19241 10.6667 8.53352 10.6667 8.95431C10.6667 9.3751 11.0078 9.71622 11.4286 9.71622ZM9.14285 8.95431C9.14285 9.3751 8.80174 9.71622 8.38095 9.71622C7.96016 9.71622 7.61904 9.3751 7.61904 8.95431C7.61904 8.53352 7.96016 8.19241 8.38095 8.19241C8.80174 8.19241 9.14285 8.53352 9.14285 8.95431ZM5.33333 9.71622C5.75412 9.71622 6.09523 9.3751 6.09523 8.95431C6.09523 8.53352 5.75412 8.19241 5.33333 8.19241C4.91254 8.19241 4.57142 8.53352 4.57142 8.95431C4.57142 9.3751 4.91254 9.71622 5.33333 9.71622ZM3.04761 8.95431C3.04761 9.3751 2.7065 9.71622 2.28571 9.71622C1.86492 9.71622 1.5238 9.3751 1.5238 8.95431C1.5238 8.53352 1.86492 8.19241 2.28571 8.19241C2.7065 8.19241 3.04761 8.53352 3.04761 8.95431Z" fill="url(#paint0_linear_107_10)"/>
</g>
</g>
</g>
<defs>
<filter id="filter0_d_107_10" x="1.5238" y="2.09717" width="10.6667" height="8.61914" filterUnits="userSpaceOnUse" color-interpolation-filters="sRGB">
<feFlood flood-opacity="0" result="BackgroundImageFix"/>
<feColorMatrix in="SourceAlpha" type="matrix" values="0 0 0 0 0 0 0 0 0 0 0 0 0 0 0 0 0 0 127 0" result="hardAlpha"/>
<feOffset dy="1"/>
<feColorMatrix type="matrix" values="0 0 0 0 0 0 0 0 0 0 0 0 0 0 0 0 0 0 0.06 0"/>
<feBlend mode="normal" in2="BackgroundImageFix" result="effect1_dropShadow_107_10"/>
<feBlend mode="normal" in="SourceGraphic" in2="effect1_dropShadow_107_10" result="shape"/>
</filter>
<linearGradient id="paint0_linear_107_10" x1="1.5238" y1="2.09717" x2="1.5238" y2="9.71622" gradientUnits="userSpaceOnUse">
<stop stop-color="white"/>
<stop offset="1" stop-color="#F0F0F0"/>
</linearGradient>
</defs>
</svg>
